# xmcd CD database file
#
# Track frame offsets:
#	150
#	22530
#	39892
#	63162
#	81897
#	103355
#	121552
#	142515
#	163095
#	183515
#
# Disc length: 2731 seconds
#
# Revision: 1
# Processed by: cddbd v1.5PL3 Copyright (c) Steve Scherf et al.
# Submitted via: cdripper 1.0.7
#
DISCID=6b0aa90a
DTITLE=Miami Dan-Den - Ven a mi
DYEAR=1900
DGENRE=Salsa
TTITLE0=Me has echado al olvido
TTITLE1=Mia
TTITLE2=Dile a el
TTITLE3=Desde adentro
TTITLE4=Amor con espina
TTITLE5=No vives en mi
TTITLE6=Me ire
TTITLE7=Señora
TTITLE8=Ven a mi
TTITLE9=Viejo Lazaro
EXTD=
EXTT0=
EXTT1=
EXTT2=
EXTT3=
EXTT4=
EXTT5=
EXTT6=
EXTT7=
EXTT8=
EXTT9=
PLAYORDER=
